<?xml version="1.0" encoding="UTF-8"?>
<svg version="1.1" xmlns="http://www.w3.org/2000/svg" width="416" height="160">
<path d="M0 0 C11.81208829 9.81902695 23.01393454 23.50789462 25 39.3125 C24.67 40.3025 24.34 41.2925 24 42.3125 C24.474375 42.663125 24.94875 43.01375 25.4375 43.375 C27.79375141 46.29675175 27.87614126 48.59673773 28 52.3125 C27.22923539 54.84080431 26.20963711 56.94161127 25 59.3125 C25.474375 59.6425 25.94875 59.9725 26.4375 60.3125 C28.80691861 63.34535582 29.1445492 66.56798742 29 70.3125 C28.21549126 72.79094801 27.13244275 74.95701908 26 77.3125 C26 78.6325 26 79.9525 26 81.3125 C25.01 81.3125 24.02 81.3125 23 81.3125 C22.649375 82.570625 22.29875 83.82875 21.9375 85.125 C16.07137603 102.47895008 1.90840051 114.92027003 -13.9375 123.0625 C-31.22265825 131.5259643 -50.80673533 132.5566568 -69.06201172 126.43041992 C-77.16799771 123.51130568 -84.14351518 119.57515282 -91 114.3125 C-91.79921875 113.70792969 -92.5984375 113.10335937 -93.421875 112.48046875 C-106.91157656 101.43286833 -115.53386789 84.41832301 -118 67.3125 C-120.25752186 43.76773516 -113.35344176 24.64809997 -98.42578125 6.38671875 C-73.09084387 -21.37322524 -28.79169645 -22.02498438 0 0 Z M1 48.3125 C0.69615253 58.17066251 1.60120562 67.58338552 3 77.3125 C3.99 76.9825 4.98 76.6525 6 76.3125 C5.34 66.7425 4.68 57.1725 4 47.3125 C2.7763932 47.2379644 2.7763932 47.2379644 1 48.3125 Z M14 51.3125 C14 52.9625 14 54.6125 14 56.3125 C15.32 55.6525 16.64 54.9925 18 54.3125 C18 53.3225 18 52.3325 18 51.3125 C16.68 51.3125 15.36 51.3125 14 51.3125 Z " fill="#72C4EF" transform="translate(143,22.6875)"/>
<path d="M0 0 C9.56709821 4.44134696 13.34785041 10.77795964 17.1484375 20.359375 C20.68278036 30.34283751 20.50891956 41.98918886 16.3203125 51.73828125 C15.92714844 52.5271875 15.53398437 53.31609375 15.12890625 54.12890625 C14.76667969 54.8559375 14.40445313 55.58296875 14.03125 56.33203125 C8.72885447 65.75052365 0.41828146 71.20209282 -9.87109375 74.12890625 C-18.32695636 75.31115069 -24.64494387 73.41102718 -31.99609375 69.44140625 C-37.94234137 64.6585549 -41.20788901 59.60562757 -42.87109375 52.12890625 C-43.13397685 49.16390143 -43.15778089 46.22901351 -43.12109375 43.25390625 C-43.11360107 42.45597656 -43.1061084 41.65804687 -43.09838867 40.8359375 C-42.85100451 27.32516905 -38.62497842 17.27783112 -29.2890625 7.33203125 C-25.82157667 4.1726419 -22.12127903 2.06080865 -17.87109375 0.12890625 C-12.74781865 -2.4327313 -5.32590849 -1.61588788 0 0 Z " fill="#020305" transform="translate(118.87109375,58.87109375)"/>
<path d="M0 0 C12.32678965 10.24688242 22.14123035 23.23192069 25 39.3125 C25 39.9725 25 40.6325 25 41.3125 C24.01 41.3125 23.02 41.3125 22 41.3125 C22 40.3225 22 39.3325 22 38.3125 C21.01 38.3125 20.02 38.3125 19 38.3125 C18.72027344 37.57386719 18.44054687 36.83523437 18.15234375 36.07421875 C10.19849043 15.9466221 -1.88691264 3.63699778 -21.359375 -5.27734375 C-29.37102524 -8.38056879 -36.28238216 -9.02674018 -44.8125 -9 C-46.33713867 -9.02416992 -46.33713867 -9.02416992 -47.89257812 -9.04882812 C-64.41686735 -9.05935986 -80.18321624 -2.27456826 -92.04125977 9.17822266 C-105.12711227 22.37072247 -112.17534581 38.12819525 -112.375 56.8125 C-112.17724606 75.31897253 -104.90239772 91.88369785 -92.375 105.4375 C-77.38906179 119.73044685 -59.67810446 123.84327667 -39.76171875 123.58984375 C-32.91681268 123.3675419 -27.29735763 122.10749161 -21 119.3125 C-19.95585938 118.85359375 -18.91171875 118.3946875 -17.8359375 117.921875 C-3.14818124 110.99712639 7.53518954 100.66058212 15.1875 86.3125 C16.96248178 83.37459913 17.78929847 82.34451121 21 81.3125 C17.95786733 79.79143366 14.71952428 79.93820662 11.375 79.75 C10.66859375 79.70681641 9.9621875 79.66363281 9.234375 79.61914062 C7.48981463 79.51305249 5.74493303 79.41227111 4 79.3125 C4.26103516 77.96091797 4.26103516 77.96091797 4.52734375 76.58203125 C4.93777428 73.74293745 4.97566589 71.79014498 4.5625 69 C3.65995176 61.46719357 3.92093029 53.88562072 4 46.3125 C10.50128459 42.6481396 16.43622931 40.24438346 23.9375 42 C26.50509509 43.63392415 27.22134022 44.35359283 28 47.3125 C27.91078447 51.64837493 27.33235035 55.58073945 25 59.3125 C25.474375 59.6425 25.94875 59.9725 26.4375 60.3125 C28.80691861 63.34535582 29.1445492 66.56798742 29 70.3125 C28.21549126 72.79094801 27.13244275 74.95701908 26 77.3125 C26 78.6325 26 79.9525 26 81.3125 C25.01 81.3125 24.02 81.3125 23 81.3125 C22.649375 82.570625 22.29875 83.82875 21.9375 85.125 C16.07137603 102.47895008 1.90840051 114.92027003 -13.9375 123.0625 C-31.22265825 131.5259643 -50.80673533 132.5566568 -69.06201172 126.43041992 C-77.16799771 123.51130568 -84.14351518 119.57515282 -91 114.3125 C-91.79921875 113.70792969 -92.5984375 113.10335937 -93.421875 112.48046875 C-106.91157656 101.43286833 -115.53386789 84.41832301 -118 67.3125 C-120.25752186 43.76773516 -113.35344176 24.64809997 -98.42578125 6.38671875 C-73.09084387 -21.37322524 -28.79169645 -22.02498438 0 0 Z M14 51.3125 C14 52.9625 14 54.6125 14 56.3125 C15.32 55.6525 16.64 54.9925 18 54.3125 C18 53.3225 18 52.3325 18 51.3125 C16.68 51.3125 15.36 51.3125 14 51.3125 Z " fill="#101518" transform="translate(143,22.6875)"/>
<path d="M0 0 C2.17313404 1.54222416 3.46581188 3.16746782 4.9375 5.375 C5.329375 4.735625 5.72125 4.09625 6.125 3.4375 C7.9375 1.375 7.9375 1.375 10.4375 0.4375 C12.9375 0.375 12.9375 0.375 14.4921875 1.53125 C23.60905199 13.16141227 20.96151003 39.21935411 19.55859375 53.1328125 C18.8588715 57.2650305 18.28517992 59.85348012 15.9375 63.375 C13.3125 63.5625 13.3125 63.5625 10.9375 63.375 C8.85753872 59.09465863 8.598665 55.12457206 8.5234375 50.44921875 C8.50407135 49.70162796 8.4847052 48.95403717 8.4647522 48.18379211 C8.40526082 45.81014194 8.35869408 43.43644246 8.3125 41.0625 C8.27429211 39.44724518 8.23523875 37.83201013 8.1953125 36.21679688 C8.0995847 32.2696929 8.01544233 28.32249361 7.9375 24.375 C6.86073557 27.60529328 6.76532848 30.07813123 6.69140625 33.4765625 C6.65853516 34.68957031 6.62566406 35.90257812 6.59179688 37.15234375 C6.53115998 39.69393281 6.47380574 42.23560255 6.41992188 44.77734375 C5.9861752 60.27764961 5.9861752 60.27764961 2.9375 66.375 C1.2875 66.045 -0.3625 65.715 -2.0625 65.375 C-3.89539871 57.753098 -4.43470081 50.38333266 -4.625 42.5625 C-4.68513024 40.36838588 -4.74879977 38.17436523 -4.81640625 35.98046875 C-4.84033447 35.02293701 -4.8642627 34.06540527 -4.88891602 33.07885742 C-5.05900503 30.42943996 -5.47928598 27.96200223 -6.0625 25.375 C-7.06128796 29.4792877 -7.13736153 33.25292223 -7.0546875 37.46875 C-7.03717627 38.84244059 -7.02026751 40.21613898 -7.00390625 41.58984375 C-6.97294409 43.73606229 -6.93735165 45.8818852 -6.89111328 48.02783203 C-6.84863046 50.11235405 -6.82530243 52.19641219 -6.8046875 54.28125 C-6.77157471 56.14233398 -6.77157471 56.14233398 -6.73779297 58.04101562 C-7.08672076 61.62369073 -7.97730115 63.48495145 -10.0625 66.375 C-11.9375 66.0625 -11.9375 66.0625 -14.0625 65.375 C-20.28961539 56.03432692 -18.40545286 39.31326676 -18.37817383 28.40771484 C-18.37496182 25.71803058 -18.39876715 23.02939713 -18.42382812 20.33984375 C-18.42609709 18.60937637 -18.42680649 16.87890607 -18.42578125 15.1484375 C-18.434991 14.35464691 -18.44420074 13.56085632 -18.45368958 12.74301147 C-18.41319855 7.87577382 -17.63879293 4.65051374 -15.0625 0.375 C-12.5875 1.365 -12.5875 1.365 -10.0625 2.375 C-10.0625 3.365 -10.0625 4.355 -10.0625 5.375 C-9.4025 5.375 -8.7425 5.375 -8.0625 5.375 C-7.69125 4.446875 -7.69125 4.446875 -7.3125 3.5 C-5.47665792 0.37906847 -3.62563867 -1.09867838 0 0 Z " fill="#0A0B0B" transform="translate(360.0625,51.625)"/>
<path d="M0 0 C4.10990038 3.10525806 5.93980212 5.9881555 7 11 C7.87230608 17.97844865 6.41133417 23.86180648 3 30 C0.21032509 32.85941679 -2.0292083 34.41173456 -6 35 C-5.505 36.98 -5.505 36.98 -5 39 C-1.54074837 37.7508258 1.14693203 36.32472205 4 34 C5.9375 34.5625 5.9375 34.5625 8 36 C9.36284532 40.25889163 9.22941335 43.17631322 7.4375 47.1875 C5.28515127 50.98924312 3.03282674 53.1448997 -1 55 C-4.8627732 55.07883211 -6.52280088 54.3522184 -9.625 52.0625 C-15.5757279 44.38919297 -17.15978301 35.65873544 -17.0625 26.125 C-17.05347656 24.97257812 -17.04445312 23.82015625 -17.03515625 22.6328125 C-17.02355469 21.76398438 -17.01195312 20.89515625 -17 20 C-17.33 20.33 -17.66 20.66 -18 21 C-20.67058851 21.14115161 -23.32432238 21.04247107 -26 21 C-28.15100745 25.38874907 -28.35740921 29.57723941 -28.5 34.375 C-28.66692803 39.93272139 -29.2656421 44.69901899 -31 50 C-33.475 50.495 -33.475 50.495 -36 51 C-38.5177474 45.88503243 -39.43923728 41.75169871 -39.36328125 36.01953125 C-39.36377975 35.28425705 -39.36427826 34.54898285 -39.36479187 33.79142761 C-39.3624668 32.24935174 -39.35283168 30.70727094 -39.33618164 29.1652832 C-39.31245885 26.80841182 -39.31564839 24.45266471 -39.32226562 22.09570312 C-39.31669194 20.59113911 -39.30958401 19.08657983 -39.30078125 17.58203125 C-39.30169266 16.88092728 -39.30260406 16.1798233 -39.30354309 15.45747375 C-39.25141029 11.85975959 -39.17618982 8.95810887 -37 6 C-36.01 5.67 -35.02 5.34 -34 5 C-32.68 6.32 -31.36 7.64 -30 9 C-29.484375 8.484375 -28.96875 7.96875 -28.4375 7.4375 C-26 6 -26 6 -22.5 6 C-18.41362671 7.16753523 -17.25471949 8.4826376 -15 12 C-14.67386719 11.30132812 -14.34773438 10.60265625 -14.01171875 9.8828125 C-13.57472656 8.97273438 -13.13773438 8.06265625 -12.6875 7.125 C-12.25824219 6.22007813 -11.82898438 5.31515625 -11.38671875 4.3828125 C-8.56753316 -0.46142189 -5.21600222 -0.62951751 0 0 Z M-4 13 C-5.06652192 15.30368736 -6.06421005 17.64018187 -7 20 C-6.67 20.66 -6.34 21.32 -6 22 C-3.88077873 20.91256712 -3.88077873 20.91256712 -2 19 C-1.66602213 15.87413125 -1.66602213 15.87413125 -2 13 C-2.66 13 -3.32 13 -4 13 Z " fill="#0C0D0C" transform="translate(238,60)"/>
<path d="M0 0 C2.86724686 0.57344937 3.8614515 0.8614515 6 3 C7.43409541 7.77202623 7.22578907 12.83577254 7.31640625 17.77734375 C7.33718735 18.73911026 7.35796844 19.70087677 7.37937927 20.69178772 C7.42259728 22.73515532 7.46364484 24.77856981 7.50268555 26.82202148 C7.56116192 29.8678053 7.62662729 32.91337156 7.69335938 35.95898438 C7.82061721 41.97236021 7.91526694 47.98589246 8 54 C8.0166571 55.03022278 8.03331421 56.06044556 8.05047607 57.12188721 C8.09582095 60.14505652 8.12631963 63.16801552 8.15234375 66.19140625 C8.16745499 67.10574936 8.18256622 68.02009247 8.19813538 68.96214294 C8.21985262 73.42911356 8.12915568 76.94374063 6 81 C1.44615385 81.36923077 1.44615385 81.36923077 -0.8125 79.5 C-1.204375 79.005 -1.59625 78.51 -2 78 C-2.5259375 78.7734375 -2.5259375 78.7734375 -3.0625 79.5625 C-5 81 -5 81 -8.375 81.3125 C-12.45208837 79.83631283 -12.85231934 79.28361612 -14.8125 75.625 C-20.69471924 61.90627158 -21.29247595 44.02615026 -16 30 C-14.6171875 27.2265625 -14.6171875 27.2265625 -13 25 C-6.96470588 23.51764706 -6.96470588 23.51764706 -4 25 C-3.98541748 24.42032471 -3.97083496 23.84064941 -3.95581055 23.2434082 C-3.88101472 20.59912447 -3.78446102 17.95605998 -3.6875 15.3125 C-3.65366211 13.94448242 -3.65366211 13.94448242 -3.61914062 12.54882812 C-3.42053527 7.58369426 -3.18722674 4.05880081 0 0 Z M-8 41 C-9.54538312 42.54538312 -9.12967467 44.00171101 -9.1328125 46.1484375 C-9.13410156 46.98890625 -9.13539063 47.829375 -9.13671875 48.6953125 C-9.13285156 49.57960938 -9.12898438 50.46390625 -9.125 51.375 C-9.12886719 52.2515625 -9.13273437 53.128125 -9.13671875 54.03125 C-9.13542969 54.87429687 -9.13414062 55.71734375 -9.1328125 56.5859375 C-9.13168457 57.3598584 -9.13055664 58.1337793 -9.12939453 58.93115234 C-9.07635147 61.19826574 -9.07635147 61.19826574 -8 64 C-6.02463255 63.65213292 -6.02463255 63.65213292 -4 63 C-2.54499601 60.08999203 -2.79102616 57.4910667 -2.75 54.25 C-2.72421875 53.03828125 -2.6984375 51.8265625 -2.671875 50.578125 C-3.02520652 46.7251289 -4.06605395 44.31824428 -6 41 C-6.66 41 -7.32 41 -8 41 Z " fill="#0C0C0B" transform="translate(266,37)"/>
<path d="M0 0 C6.9418858 5.99526501 7.96400435 15.27728659 9 24 C9.8783889 37.95719114 9.94810078 53.52807592 1 65 C-1.88861709 66.44430855 -3.79647701 66.37688506 -7 66 C-13.40318883 61.57875057 -15.16395795 53.97710399 -16.69140625 46.7109375 C-19.06583911 32.53075807 -19.33800038 15.84150067 -12 3 C-8.22130896 -1.39145174 -5.48172875 -1.76198424 0 0 Z M-5 17 C-7.53678236 21.8520996 -7.29684839 26.54209123 -7.25 31.875 C-7.25773437 32.74769531 -7.26546875 33.62039062 -7.2734375 34.51953125 C-7.25775722 39.73322552 -6.69419322 44.0653261 -5 49 C-4.34 49 -3.68 49 -3 49 C0.06907153 38.83370055 -0.21907236 28.26539957 -3 18 C-3.66 17.67 -4.32 17.34 -5 17 Z " fill="#0B0B0B" transform="translate(331,54)"/>
<path d="M0 0 C5.30595656 7.02680734 6.77650664 15.32625567 6 24 C5.3125 27 5.3125 27 4 29 C1.5 29.9375 1.5 29.9375 -1 30 C-3.42130331 27.57869669 -3.52840504 26.19888623 -4.125 22.875 C-4.29257812 21.96492188 -4.46015625 21.05484375 -4.6328125 20.1171875 C-4.75398438 19.41851562 -4.87515625 18.71984375 -5 18 C-7.09641765 23.99923469 -7.27079585 29.42828334 -7.1875 35.75 C-7.1865332 37.16732422 -7.1865332 37.16732422 -7.18554688 38.61328125 C-7.17911004 43.89120414 -7.17911004 43.89120414 -6 49 C-5.34 49 -4.68 49 -4 49 C-3.5875 48.030625 -3.175 47.06125 -2.75 46.0625 C-1 43 -1 43 1.1875 42.125 C1.785625 42.08375 2.38375 42.0425 3 42 C6.01121588 46.14042184 6.59297735 48.91733704 6 54 C4.58480641 58.49666349 2.81077753 62.07965794 -0.3125 65.625 C-4.04265405 67.53345091 -6.03181558 67.22652973 -10 66 C-17.75215244 58.89386026 -18.46327785 46.92492409 -19 37 C-19.24940964 25.71294123 -18.69863214 11.3312064 -11.375 2.1875 C-7.40534024 -1.46876557 -5.23143403 -1.44315421 0 0 Z " fill="#0C0C0C" transform="translate(306,54)"/>
<path d="M0 0 C1.70254891 3.00449807 1.94775301 5.4325903 2.0625 8.875 C1.29173539 11.40330431 0.27213711 13.50411127 -0.9375 15.875 C-0.463125 16.205 0.01125 16.535 0.5 16.875 C2.86657455 19.90421542 3.18971617 23.13625815 3.0625 26.875 C1.55967203 30.93263553 0.68091259 32.46272494 -2.9375 34.875 C-6.15234375 35.140625 -6.15234375 35.140625 -9.875 35.125 C-11.10089844 35.13015625 -12.32679688 35.1353125 -13.58984375 35.140625 C-18.69502301 34.7355466 -18.69502301 34.7355466 -20.9375 32.875 C-21.546875 30.43359375 -21.546875 30.43359375 -21.6875 27.3125 C-21.74292969 26.16265625 -21.79835937 25.0128125 -21.85546875 23.828125 C-22.00043534 16.84211585 -22.01280792 9.86190115 -21.9375 2.875 C-20.69014433 2.2240741 -19.43948168 1.57948331 -18.1875 0.9375 C-17.49140625 0.57785156 -16.7953125 0.21820313 -16.078125 -0.15234375 C-10.8639423 -2.5215618 -5.09766274 -2.95993321 0 0 Z M-11.9375 7.875 C-11.9375 9.525 -11.9375 11.175 -11.9375 12.875 C-10.6175 12.215 -9.2975 11.555 -7.9375 10.875 C-7.9375 9.885 -7.9375 8.895 -7.9375 7.875 C-9.2575 7.875 -10.5775 7.875 -11.9375 7.875 Z " fill="#090A09" transform="translate(168.9375,66.125)"/>
<path d="M0 0 C3.99696324 2.18016177 6.07318791 4.92282561 7.4921875 9.26953125 C9.26961052 18.82659808 9.62251429 30.63564232 4 39 C1.43033417 41.16288475 -0.58769047 42.79927591 -4 43 C-9.16464866 41.1708536 -11.42537711 38.78144251 -14 34 C-17.30593071 26.0657663 -17.5715563 15.8445142 -14.3125 7.875 C-10.95267097 1.56650983 -7.32017442 -1.0457392 0 0 Z M-5 11 C-7.23928424 17.19096231 -7.78329047 23.13398595 -4.953125 29.26953125 C-4.63859375 29.84058594 -4.3240625 30.41164063 -4 31 C-1.03965301 28.03965301 -1.04680916 25.82696188 -0.8125 21.6875 C-1.01338858 17.73669123 -1.77895872 14.73943891 -3 11 C-3.66 11 -4.32 11 -5 11 Z " fill="#0B0B0C" transform="translate(189,66)"/>
<path d="M0 0 C3 1 3 1 5 2 C5 1.34 5 0.68 5 0 C11.57297098 -0.4676422 15.77838479 -0.49301774 21 4 C22.4540625 5.2065625 22.4540625 5.2065625 23.9375 6.4375 C26 9 26 9 26.3125 11.5 C23.82291585 16.24206505 18.88270213 18.12140567 14.1875 20.3125 C5.59136405 22.16656854 -2.33289624 21.48974544 -10 17 C-13.59971415 13.9795502 -15.58091731 10.74960382 -16 6 C-10.45765277 1.30105344 -7.55468025 -0.6211305 0 0 Z " fill="#73C2EC" transform="translate(98,108)"/>
<path d="M0 0 C6.93 0 13.86 0 21 0 C21 1.32 21 2.64 21 4 C20.01 4 19.02 4 18 4 C17.649375 5.258125 17.29875 6.51625 16.9375 7.8125 C11.07137603 25.16645008 -3.09159949 37.60777003 -18.9375 45.75 C-30.54151023 51.43176032 -41.28015216 52.567555 -54 53 C-54 52.67 -54 52.34 -54 52 C-49.05 51.34 -44.1 50.68 -39 50 C-39 49.34 -39 48.68 -39 48 C-39.66 47.67 -40.32 47.34 -41 47 C-40.05640625 46.70867187 -39.1128125 46.41734375 -38.140625 46.1171875 C-16.88458978 39.39728633 -0.53110155 29.09737791 10.1875 9 C11.96248178 6.06209913 12.78929847 5.03201121 16 4 C12.95786733 2.47893366 9.71952428 2.62570662 6.375 2.4375 C5.66859375 2.39431641 4.9621875 2.35113281 4.234375 2.30664062 C2.48981463 2.20055249 0.74493303 2.09977111 -1 2 C-0.67 1.34 -0.34 0.68 0 0 Z " fill="#0D1419" transform="translate(148,100)"/>
<path d="M0 0 C2.3125 1.75 2.3125 1.75 3.25 3.875 C3.270625 4.49375 3.29125 5.1125 3.3125 5.75 C2.9825 6.08 2.6525 6.41 2.3125 6.75 C-0.97509958 6.49594098 -4.24802276 6.19888578 -7.52148438 5.80273438 C-11.5450853 5.44235645 -13.35531742 5.57794251 -17.05859375 7.49609375 C-19.36603284 9.47438848 -20.72473348 10.82446697 -22.0625 13.5 C-22.59875 14.5725 -23.135 15.645 -23.6875 16.75 C-25.0075 16.75 -26.3275 16.75 -27.6875 16.75 C-28.63471072 14.14517051 -28.98972393 12.44325299 -27.86328125 9.859375 C-26.85813275 8.12417127 -25.7768855 6.43359577 -24.6875 4.75 C-24.0275 4.75 -23.3675 4.75 -22.6875 4.75 C-22.6875 4.09 -22.6875 3.43 -22.6875 2.75 C-15.66416809 -2.35787776 -8.20123499 -2.78007966 0 0 Z " fill="#050B12" transform="translate(84.6875,40.25)"/>
<path d="M0 0 C4.29559423 1.94457327 7.3614324 4.1117504 9.79296875 8.265625 C10.04296875 11.078125 10.04296875 11.078125 9.79296875 13.265625 C6.09394594 12.93924063 4.85868153 12.32828137 2.10546875 9.703125 C-1.30242635 6.64929692 -4.40980521 6.74167203 -8.83984375 6.796875 C-11.62774019 7.3489337 -12.9896213 8.54458088 -15.20703125 10.265625 C-17.95703125 9.953125 -17.95703125 9.953125 -20.20703125 9.265625 C-20.20703125 7.078125 -20.20703125 7.078125 -19.20703125 4.265625 C-13.62753718 -1.0007342 -7.24607879 -2.41108463 0 0 Z " fill="#101A23" transform="translate(131.20703125,32.734375)"/>
<path d="M0 0 C2.09782787 2.09782787 2.6509396 3.3799207 3.625 6.125 C4.01558594 7.21167969 4.01558594 7.21167969 4.4140625 8.3203125 C4.70410156 9.15175781 4.70410156 9.15175781 5 10 C5.99 10 6.98 10 8 10 C9.69150671 12.53726007 10.90948835 14.87705687 12.1875 17.625 C14.841201 22.98703701 18.15997871 27.43576417 22 32 C22.5878125 32.69867188 23.175625 33.39734375 23.78125 34.1171875 C25.17565268 35.75495291 26.58602527 37.37910214 28 39 C26.515 39.495 26.515 39.495 25 40 C24.67 40.66 24.34 41.32 24 42 C11.81109312 32.92315445 3.31827031 17.70290504 0 3 C0 2.01 0 1.02 0 0 Z " fill="#121518" transform="translate(26,93)"/>
<path d="M0 0 C-3.06516633 6.93455946 -9.08483127 10.85799494 -15.8125 13.9375 C-23.76098098 16.97456146 -31.34049072 17.34439747 -39.21875 13.921875 C-43.28695739 11.81639925 -46.92666625 9.41481528 -50 6 C-49.34 4.68 -48.68 3.36 -48 2 C-47.38125 2.59748047 -47.38125 2.59748047 -46.75 3.20703125 C-40.11579493 9.29332206 -34.01247644 11.68316435 -24.9453125 11.41796875 C-17.01059141 10.29195395 -10.21160056 7.05218129 -5 1 C-2 0 -2 0 0 0 Z " fill="#0D1921" transform="translate(131,117)"/>
<path d="M0 0 C-1.051875 0.4021875 -1.051875 0.4021875 -2.125 0.8125 C-5.1649824 2.0681449 -8.0727774 3.50235123 -11 5 C-10.01 5 -9.02 5 -8 5 C-7.01 5.33 -6.02 5.66 -5 6 C-6.07378906 6.53109375 -7.14757812 7.0621875 -8.25390625 7.609375 C-9.69015842 8.32280745 -11.12635328 9.03635529 -12.5625 9.75 C-13.26697266 10.09804688 -13.97144531 10.44609375 -14.69726562 10.8046875 C-18.14883056 12.52251705 -21.51197613 14.28686487 -24.8125 16.28125 C-28.49390076 18.26631904 -30.05704185 18.15403653 -34 17 C-28.17709575 10.37393654 -9.11461295 -4.55730647 0 0 Z " fill="#13161B" transform="translate(82,10)"/>
<path d="M0 0 C0.03738281 1.14855469 0.07476563 2.29710938 0.11328125 3.48046875 C0.45798692 12.10929015 1.12669247 20.05532096 3.4765625 28.3984375 C4.00933142 31.04637857 3.89399028 32.48490735 3 35 C-0.25958421 33.31400817 -1.43726273 31.43464176 -2.625 28.09375 C-4.38608241 22.52935434 -4.33687788 17.22493517 -4.1875 11.4375 C-4.17396484 10.42880859 -4.16042969 9.42011719 -4.14648438 8.38085938 C-4.11149576 5.91999379 -4.06241158 3.46029665 -4 1 C-2 0 -2 0 0 0 Z " fill="#060C12" transform="translate(30,70)"/>
<path d="M0 0 C4.875 2.75 4.875 2.75 6 5 C6.46280992 11.24793388 6.46280992 11.24793388 4.5 14.4375 C4.005 14.953125 3.51 15.46875 3 16 C-0.31317555 15.73136414 -1.63876354 15.40940132 -3.875 12.875 C-5.351157 9.10259879 -5.0775967 6.87934812 -4 3 C-1.9375 1.0625 -1.9375 1.0625 0 0 Z " fill="#121212" transform="translate(281,104)"/>
<path d="M0 0 C6.93 0 13.86 0 21 0 C21 1.32 21 2.64 21 4 C20.01 4 19.02 4 18 4 C17.81824219 4.59167969 17.63648438 5.18335937 17.44921875 5.79296875 C14.64171712 14.61860209 14.64171712 14.61860209 12 18 C9.9375 18.75 9.9375 18.75 8 19 C7.34 19.33 6.68 19.66 6 20 C6.58423038 16.37263553 7.54685659 13.53220268 9.3125 10.3125 C9.72113281 9.54550781 10.12976563 8.77851562 10.55078125 7.98828125 C12.16676607 5.77120235 13.47947254 5.00498643 16 4 C12.95786733 2.47893366 9.71952428 2.62570662 6.375 2.4375 C5.66859375 2.39431641 4.9621875 2.35113281 4.234375 2.30664062 C2.48981463 2.20055249 0.74493303 2.09977111 -1 2 C-0.67 1.34 -0.34 0.68 0 0 Z " fill="#080F18" transform="translate(148,100)"/>
<path d="M0 0 C0.75732422 0.00644531 1.51464844 0.01289062 2.29492188 0.01953125 C3.47344727 0.04466797 3.47344727 0.04466797 4.67578125 0.0703125 C5.47306641 0.07933594 6.27035156 0.08835937 7.09179688 0.09765625 C9.05742025 0.12119665 11.022889 0.15706703 12.98828125 0.1953125 C12.33984375 2.12890625 12.33984375 2.12890625 10.98828125 4.1953125 C8.51171875 4.91796875 8.51171875 4.91796875 5.36328125 5.2578125 C-0.08245455 5.93471807 -5.43862646 6.78239488 -10.82421875 7.8203125 C-11.8918042 8.02346069 -11.8918042 8.02346069 -12.98095703 8.23071289 C-14.65826307 8.55022918 -16.33505119 8.87246252 -18.01171875 9.1953125 C-17.0225561 6.59675549 -16.51476575 5.43394959 -13.953125 4.21875 C-13.16808594 4.00476563 -12.38304688 3.79078125 -11.57421875 3.5703125 C-7.3703412 2.39294976 -4.40626138 -0.06625957 0 0 Z " fill="#080A0C" transform="translate(88.01171875,7.8046875)"/>
<path d="M0 0 C0.33 1.32 0.66 2.64 1 4 C1.99 4 2.98 4 4 4 C2.68 9.94 1.36 15.88 0 22 C-1.65 22 -3.3 22 -5 22 C-5 28.27 -5 34.54 -5 41 C-5.33 41 -5.66 41 -6 41 C-6.53862977 26.39714846 -5.74991923 13.64958304 0 0 Z " fill="#1A1C1E" transform="translate(31,49)"/>
<path d="M0 0 C10.30054746 -0.37156283 20.24462781 0.52947895 30 4 C26.45856475 6.19629783 23.60332753 6.23275752 19.484375 6.1953125 C17.60878906 6.18564453 17.60878906 6.18564453 15.6953125 6.17578125 C14.39335938 6.15902344 13.09140625 6.14226563 11.75 6.125 C10.43257812 6.11597656 9.11515625 6.10695313 7.7578125 6.09765625 C4.50502538 6.07408533 1.25260411 6.04118022 -2 6 C-2 5.67 -2 5.34 -2 5 C0.97 5 3.94 5 7 5 C7.33 4.01 7.66 3.02 8 2 C5.36 1.67 2.72 1.34 0 1 C0 0.67 0 0.34 0 0 Z " fill="#282F32" transform="translate(92,7)"/>
<path d="M0 0 C5.42700017 0.38764287 8.28762789 2.02862518 12 6 C12.875 9.8125 12.875 9.8125 13 13 C8.72619651 12.62289969 6.81582414 11.03351868 3.69140625 8.2109375 C0.72567016 6.08766224 -2.45417635 5.6724838 -6 5 C-6 4.67 -6 4.34 -6 4 C-4.35 4 -2.7 4 -1 4 C-0.67 2.68 -0.34 1.36 0 0 Z " fill="#03070B" transform="translate(128,33)"/>
<path d="M0 0 C0.4125 0.39832031 0.825 0.79664062 1.25 1.20703125 C8.34914284 7.71986095 15.66760282 9.37448 25 11 C22.38161579 13.61838421 21.08933031 13.35821377 17.4375 13.4375 C9.85518899 13.31916862 4.97992807 10.68920338 -0.5625 5.6875 C-1.036875 5.130625 -1.51125 4.57375 -2 4 C-1.34 2.68 -0.68 1.36 0 0 Z " fill="#08131B" transform="translate(83,119)"/>
<path d="M0 0 C0.33 0.99 0.66 1.98 1 3 C-17.75 5.5 -17.75 5.5 -23 2 C-23 1.34 -23 0.68 -23 0 C-20.29204274 -0.19601027 -17.58400195 -0.38204839 -14.875 -0.5625 C-14.11445312 -0.61857422 -13.35390625 -0.67464844 -12.5703125 -0.73242188 C-8.20006872 -1.01498074 -4.31929331 -0.93147699 0 0 Z " fill="#040706" transform="translate(109,148)"/>
<path d="M0 0 C0 2 0 2 -1.8125 4.125 C-4 6 -4 6 -7 6 C-7 6.66 -7 7.32 -7 8 C-6.01 8 -5.02 8 -4 8 C-4 8.66 -4 9.32 -4 10 C-5.051875 10.20625 -6.10375 10.4125 -7.1875 10.625 C-11.53310189 11.82920293 -13.19381071 14.54622856 -16 18 C-19.3125 19.375 -19.3125 19.375 -22 20 C-18.43907391 13.52558894 -8.23526321 0 0 0 Z " fill="#7ABEE2" transform="translate(64,22)"/>
<path d="M0 0 C0.99 0.33 1.98 0.66 3 1 C3.33333333 2.33333333 3.66666667 3.66666667 4 5 C4.99 5.33 5.98 5.66 7 6 C7.94921875 8.43359375 7.94921875 8.43359375 8.6875 11.4375 C9.06455078 12.92056641 9.06455078 12.92056641 9.44921875 14.43359375 C10 17 10 17 10 19 C9.01 19 8.02 19 7 19 C7 18.01 7 17.02 7 16 C6.01 16 5.02 16 4 16 C-0.59225513 5.62642369 -0.59225513 5.62642369 0 0 Z " fill="#03080B" transform="translate(158,45)"/>
<path d="M0 0 C1.890625 0.58203125 1.890625 0.58203125 4 2 C7.48547056 11.81914281 9.09395642 25.94464163 6 36 C5.34 36 4.68 36 4 36 C4.04640625 34.69546875 4.0928125 33.3909375 4.140625 32.046875 C4.38975159 21.91798899 4.14533961 13.43938778 0 4 C-0.33 3.01 -0.66 2.02 -1 1 C-0.67 0.67 -0.34 0.34 0 0 Z " fill="#88C5E4" transform="translate(133,70)"/>
<path d="M0 0 C1.09505859 0.01353516 2.19011719 0.02707031 3.31835938 0.04101562 C5.98361414 0.07593163 8.64777504 0.12496283 11.3125 0.1875 C11.3125 0.8475 11.3125 1.5075 11.3125 2.1875 C6.12592063 3.06439219 1.24898194 3.24376868 -4 3.125 C-10.45740214 3.04076386 -16.42171661 3.46325494 -22.6875 5.1875 C-23.0175 4.5275 -23.3475 3.8675 -23.6875 3.1875 C-15.6443417 0.52180761 -8.44092307 -0.20158971 0 0 Z " fill="#82B8D3" transform="translate(98.6875,12.8125)"/>
<path d="M0 0 C1.26328125 0.01804687 2.5265625 0.03609375 3.828125 0.0546875 C4.79234375 0.07789062 5.7565625 0.10109375 6.75 0.125 C6.75 0.785 6.75 1.445 6.75 2.125 C5.9765625 2.06699219 5.203125 2.00898437 4.40625 1.94921875 C-2.09037001 1.66780575 -6.44871325 2.03634775 -11.921875 5.640625 C-13.69452991 7.28986013 -13.69452991 7.28986013 -13.25 11.125 C-9.69219804 10.51509109 -6.5671411 9.5466319 -3.25 8.125 C-4.25 10.5625 -4.25 10.5625 -6.25 13.125 C-8.97714162 13.88881481 -11.39167178 13.98442648 -14.25 14.125 C-16.25 11.125 -16.25 11.125 -15.875 7.9375 C-15.66875 7.009375 -15.4625 6.08125 -15.25 5.125 C-13.93 4.795 -12.61 4.465 -11.25 4.125 C-11.25 3.465 -11.25 2.805 -11.25 2.125 C-7.54583874 -0.25090142 -4.32015427 -0.08000286 0 0 Z " fill="#81C0E1" transform="translate(125.25,30.875)"/>
<path d="M0 0 C7.38468876 3.43473896 7.38468876 3.43473896 8.5 6.4375 C8.561875 7.035625 8.62375 7.63375 8.6875 8.25 C6.6875 9.125 6.6875 9.125 3.6875 9.25 C0.70940663 7.60957149 -1.95579975 5.7061144 -4.3125 3.25 C-4.3125 2.26 -4.3125 1.27 -4.3125 0.25 C-2.3125 -0.75 -2.3125 -0.75 0 0 Z " fill="#0E1015" transform="translate(55.3125,132.75)"/>
<path d="M0 0 C2.09782787 2.09782787 2.6509396 3.3799207 3.625 6.125 C4.01558594 7.21167969 4.01558594 7.21167969 4.4140625 8.3203125 C4.70410156 9.15175781 4.70410156 9.15175781 5 10 C5.99 10 6.98 10 8 10 C9.99097846 12.98646769 10.94124926 15.59687262 12 19 C10.02 19.33 8.04 19.66 6 20 C0.44419134 6.3667426 0.44419134 6.3667426 0 0 Z " fill="#1E2327" transform="translate(26,93)"/>
<path d="M0 0 C0 0.99 0 1.98 0 3 C-0.99 3 -1.98 3 -3 3 C-3 3.66 -3 4.32 -3 5 C-10.05453001 6.20443195 -16.83437211 7.28100502 -24 7 C-24 6.67 -24 6.34 -24 6 C-19.05 5.34 -14.1 4.68 -9 4 C-9 3.34 -9 2.68 -9 2 C-9.66 1.67 -10.32 1.34 -11 1 C-3.57142857 -1.42857143 -3.57142857 -1.42857143 0 0 Z " fill="#323639" transform="translate(118,146)"/>
<path d="M0 0 C2.43816585 -0.0809723 4.87364384 -0.14046972 7.3125 -0.1875 C8.34793945 -0.22520508 8.34793945 -0.22520508 9.40429688 -0.26367188 C14.55674183 -0.33834499 14.55674183 -0.33834499 16.98046875 1.51171875 C17.31691406 2.00285156 17.65335938 2.49398437 18 3 C14.9489365 4.01702117 12.75800939 4.16582083 9.5625 4.1875 C8.14130859 4.20876953 8.14130859 4.20876953 6.69140625 4.23046875 C3.95498356 3.99614518 2.33571877 3.39701383 0 2 C0 1.34 0 0.68 0 0 Z " fill="#EEF8F8" transform="translate(147,102)"/>
<path d="M0 0 C0.81142566 2.34997302 1.10094925 3.65257725 0.3984375 6.0703125 C-2.38917893 11.66682487 -2.38917893 11.66682487 -5.75 13.5 C-6.4925 13.665 -7.235 13.83 -8 14 C-7.01165919 5.07085202 -7.01165919 5.07085202 -4.53125 2.4453125 C-2.875 1.375 -2.875 1.375 0 0 Z " fill="#13141D" transform="translate(39,41)"/>
<path d="M0 0 C0.99 0.495 0.99 0.495 2 1 C2.39477539 2.96191406 2.39477539 2.96191406 2.59765625 5.515625 C2.67693359 6.43730469 2.75621094 7.35898438 2.83789062 8.30859375 C2.91201172 9.27925781 2.98613281 10.24992187 3.0625 11.25 C3.21772886 13.15123278 3.37521059 15.05228322 3.53515625 16.953125 C3.600979 17.80036133 3.66680176 18.64759766 3.73461914 19.52050781 C4.09303616 22.86925048 4.48582777 25.97165554 6 29 C5.34 29.99 4.68 30.98 4 32 C4 31.01 4 30.02 4 29 C3.34 29 2.68 29 2 29 C1.02700338 25.68973391 0.80653218 22.58290092 0.68359375 19.140625 C0.64169922 18.02558594 0.59980469 16.91054687 0.55664062 15.76171875 C0.51732422 14.60285156 0.47800781 13.44398437 0.4375 12.25 C0.39431641 11.07566406 0.35113281 9.90132812 0.30664062 8.69140625 C0.20065206 5.79438549 0.09858362 2.89728065 0 0 Z " fill="#80BBD7" transform="translate(142,72)"/>
<path d="M0 0 C1.8125 0.5 1.8125 0.5 4 2 C4.70017844 3.8671425 5.38998668 5.73946449 6.00390625 7.63671875 C7.60964094 11.44640302 10.15671114 14.54435975 12.671875 17.80078125 C13.11015625 18.52652344 13.5484375 19.25226563 14 20 C13.67 20.99 13.34 21.98 13 23 C7.26107572 16.15298371 1.91281107 8.89253658 0 0 Z " fill="#7EB7D4" transform="translate(34,102)"/>
<path d="M0 0 C-0.33 5.61 -0.66 11.22 -1 17 C-1.66 17.33 -2.32 17.66 -3 18 C-4.18681726 14.43954823 -4.09689832 11.56191663 -4.0625 7.8125 C-4.05347656 6.54019531 -4.04445313 5.26789063 -4.03515625 3.95703125 C-4.02355469 2.98121094 -4.01195313 2.00539063 -4 1 C-2 0 -2 0 0 0 Z " fill="#030304" transform="translate(30,70)"/>
<path d="M0 0 C1.07817935 3.22730196 0.94858069 4.98126331 -0.3125 8.125 C-0.70888672 9.14980469 -0.70888672 9.14980469 -1.11328125 10.1953125 C-2 12 -2 12 -4 14 C-4.33 13.34 -4.66 12.68 -5 12 C-6.98 12.99 -6.98 12.99 -9 14 C-7.65070536 10.16336928 -5.92248975 7.34827431 -3.375 4.1875 C-2.42753906 3.00220703 -2.42753906 3.00220703 -1.4609375 1.79296875 C-0.97882812 1.20128906 -0.49671875 0.60960938 0 0 Z " fill="#1E2020" transform="translate(44,30)"/>
<path d="M0 0 C2 0.6875 2 0.6875 4 2.6875 C4.26991906 5.37589385 4.08737357 7.97891936 4 10.6875 C0.82537057 8.28507773 -1.85751741 6.07036724 -4 2.6875 C-4 2.0275 -4 1.3675 -4 0.6875 C-2 -0.3125 -2 -0.3125 0 0 Z " fill="#090F11" transform="translate(148,28.3125)"/>
<path d="M0 0 C0 0.66 0 1.32 0 2 C14.52377027 1.31945745 14.52377027 1.31945745 29 0 C24.64606996 2.90262003 20.80243281 3.12640266 15.65625 3.1328125 C14.65722656 3.13410156 13.65820312 3.13539063 12.62890625 3.13671875 C11.59636719 3.13285156 10.56382813 3.12898437 9.5 3.125 C8.46746094 3.12886719 7.43492188 3.13273438 6.37109375 3.13671875 C5.37207031 3.13542969 4.37304688 3.13414062 3.34375 3.1328125 C2.43818359 3.13168457 1.53261719 3.13055664 0.59960938 3.12939453 C-2.02362019 2.99882431 -4.44191438 2.58070158 -7 2 C-4 0 -4 0 0 0 Z " fill="#79A9C3" transform="translate(88,144)"/>
<path d="M0 0 C6.93 0 13.86 0 21 0 C21 1.32 21 2.64 21 4 C20.01 4 19.02 4 18 4 C18 4.66 18 5.32 18 6 C16.68 5.67 15.36 5.34 14 5 C14.66 4.67 15.32 4.34 16 4 C12.95786733 2.47893366 9.71952428 2.62570662 6.375 2.4375 C5.66859375 2.39431641 4.9621875 2.35113281 4.234375 2.30664062 C2.48981463 2.20055249 0.74493303 2.09977111 -1 2 C-0.67 1.34 -0.34 0.68 0 0 Z " fill="#44474B" transform="translate(148,100)"/>
<path d="M0 0 C0.33 0 0.66 0 1 0 C1.04898437 0.845625 1.09796875 1.69125 1.1484375 2.5625 C1.57901155 9.98829783 1.57901155 9.98829783 3.0625 17.25 C4.15296833 21.61187333 4.18599441 25.53613423 4 30 C-0.98877489 20.50455872 -0.21495267 10.40132097 0 0 Z " fill="#70A7C6" transform="translate(30,71)"/>
<path d="M0 0 C3.36720387 1.39332574 4.9859524 2.9789286 7 6 C6.01 6.33 5.02 6.66 4 7 C3.67 7.66 3.34 8.32 3 9 C1.02 7.35 -0.96 5.7 -3 4 C-2.34 3.67 -1.68 3.34 -1 3 C-0.67 2.01 -0.34 1.02 0 0 Z " fill="#1A1E1F" transform="translate(47,126)"/>
<path d="M0 0 C0 0.66 0 1.32 0 2 C-0.78246094 2.13277344 -1.56492187 2.26554687 -2.37109375 2.40234375 C-3.38300781 2.57894531 -4.39492187 2.75554687 -5.4375 2.9375 C-6.44683594 3.11152344 -7.45617187 3.28554687 -8.49609375 3.46484375 C-10.9287438 3.74751097 -10.9287438 3.74751097 -12 5 C-12.04092937 7.33297433 -12.04241723 9.66705225 -12 12 C-12.99 12.495 -12.99 12.495 -14 13 C-15.28317658 10.8865327 -16.01559731 9.49911402 -15.9375 7 C-12.67019118 0.02974118 -6.6359473 -0.10703141 0 0 Z " fill="#81B2CD" transform="translate(98,108)"/>
<path d="M0 0 C1.1875 1.5625 1.1875 1.5625 2 4 C1.54625 4.9796875 1.0925 5.959375 0.625 6.96875 C-1.57309828 11.7922322 -1.79775515 16.70633744 -2.1875 21.9375 C-2.26935547 22.90751953 -2.35121094 23.87753906 -2.43554688 24.87695312 C-2.6343289 27.25064437 -2.82219276 29.62466123 -3 32 C-3.33 32 -3.66 32 -4 32 C-4.02718316 29.14576808 -4.04692705 26.29179985 -4.0625 23.4375 C-4.07087891 22.63763672 -4.07925781 21.83777344 -4.08789062 21.01367188 C-4.11927891 13.32354168 -3.27514043 6.9774731 0 0 Z " fill="#6F9FBD" transform="translate(79,76)"/>
<path d="M0 0 C0.66 0.33 1.32 0.66 2 1 C1.55269531 1.4125 1.10539062 1.825 0.64453125 2.25 C-3.74673939 6.44464658 -7.02071007 10.71416302 -10 16 C-10.93423645 12.98968256 -11.04449911 12.13349732 -10 9 C-9.01 9 -8.02 9 -7 9 C-7 7.68 -7 6.36 -7 5 C-6.34 5 -5.68 5 -5 5 C-4.731875 4.360625 -4.46375 3.72125 -4.1875 3.0625 C-3 1 -3 1 0 0 Z " fill="#7DB8D4" transform="translate(91,63)"/>
<path d="M0 0 C0.99 0.309375 1.98 0.61875 3 0.9375 C6.97731122 2.08433207 10.88767379 2.56712356 15 3 C15 4.32 15 5.64 15 7 C15.99 7.33 16.98 7.66 18 8 C13.3110507 7.44380331 9.80075733 6.11817327 5.625 3.9375 C4.56539063 3.38964844 3.50578125 2.84179688 2.4140625 2.27734375 C1.61742188 1.85582031 0.82078125 1.43429688 0 1 C0 0.67 0 0.34 0 0 Z " fill="#73AFC7" transform="translate(63,137)"/>
<path d="M0 0 C3.65047197 1.73397418 5.55609075 3.19333016 7 7 C5.02 7.33 3.04 7.66 1 8 C-2 3.25 -2 3.25 -2 1 C-1.34 0.67 -0.68 0.34 0 0 Z " fill="#0D0F11" transform="translate(35,111)"/>
<path d="M0 0 C4.92307692 4.30769231 4.92307692 4.30769231 5.3125 7.8125 C5.1578125 8.8953125 5.1578125 8.8953125 5 10 C1.75791433 9.64950425 0.38472296 9.43778819 -1.8125 6.9375 C-2.204375 6.298125 -2.59625 5.65875 -3 5 C-2.01 5 -1.02 5 0 5 C0 3.35 0 1.7 0 0 Z " fill="#060F1B" transform="translate(136,36)"/>
<path d="M0 0 C0 0.99 0 1.98 0 3 C0.3062434 4.33981486 0.63451555 5.67511887 1 7 C-1.75924185 8.80411967 -2.88972103 9.0127245 -6.25 8.625 C-7.61125 8.315625 -7.61125 8.315625 -9 8 C-6.14723863 5.06799526 -3.34920216 2.35684596 0 0 Z " fill="#24282E" transform="translate(57,19)"/>
<path d="M0 0 C-1.051875 0.4021875 -1.051875 0.4021875 -2.125 0.8125 C-5.1649824 2.0681449 -8.0727774 3.50235123 -11 5 C-10.01 5 -9.02 5 -8 5 C-7.01 5.33 -6.02 5.66 -5 6 C-9.455 7.485 -9.455 7.485 -14 9 C-14 8.01 -14 7.02 -14 6 C-14.66 5.34 -15.32 4.68 -16 4 C-14.41800369 3.35089846 -12.83434276 2.70585306 -11.25 2.0625 C-10.36828125 1.70285156 -9.4865625 1.34320313 -8.578125 0.97265625 C-2.58031088 -1.29015544 -2.58031088 -1.29015544 0 0 Z " fill="#2B2F32" transform="translate(82,10)"/>
<path d="M0 0 C2.40763406 0.53603928 4.65422006 1.21807335 7 2 C7 2.33 7 2.66 7 3 C6.07316406 2.98839844 5.14632812 2.97679687 4.19140625 2.96484375 C2.39509766 2.95130859 2.39509766 2.95130859 0.5625 2.9375 C-1.22994141 2.92009766 -1.22994141 2.92009766 -3.05859375 2.90234375 C-5.88873341 2.66098208 -5.88873341 2.66098208 -7 4 C-8.99958364 4.04080783 -11.00045254 4.04254356 -13 4 C-8.92656372 -0.07343628 -5.5628176 -0.73471176 0 0 Z " fill="#7AA9C5" transform="translate(79,45)"/>
<path d="M0 0 C0 0.66 0 1.32 0 2 C-6.27467799 3.0748291 -10.90660831 2.88341198 -17 1 C-17 0.67 -17 0.34 -17 0 C-11.99632677 -1.33431286 -4.7581135 -2.37905675 0 0 Z " fill="#101419" transform="translate(127,13)"/>
<path d="M0 0 C1.093125 0.33 2.18625 0.66 3.3125 1 C10.15286871 2.71617792 17.14550056 2.54380618 24 1 C24 1.66 24 2.32 24 3 C20.15279052 5.56480632 18.24966224 5.09295186 13.6875 4.75 C11.74423828 4.61851562 11.74423828 4.61851562 9.76171875 4.484375 C6.25680444 4.03306724 3.29509955 3.24651828 0 2 C0 1.34 0 0.68 0 0 Z " fill="#81BDDB" transform="translate(90,130)"/>
<path d="M0 0 C0.33 0 0.66 0 1 0 C1.33 1.98 1.66 3.96 2 6 C-0.01071707 7.57984913 -1.88196736 8.94266986 -4.1875 10.0625 C-6.17892157 10.86702161 -6.17892157 10.86702161 -7 13 C-7.99 12.67 -8.98 12.34 -10 12 C-9.44570312 11.46890625 -8.89140625 10.9378125 -8.3203125 10.390625 C-7.59585938 9.68421875 -6.87140625 8.9778125 -6.125 8.25 C-5.04605469 7.20585938 -5.04605469 7.20585938 -3.9453125 6.140625 C-2.13520321 4.14877783 -1.05151914 2.4572342 0 0 Z " fill="#81B9DD" transform="translate(132,115)"/>
<path d="M0 0 C-1.55500981 3.81684226 -4.03595495 6.19195732 -7 9 C-7.99 8.67 -8.98 8.34 -10 8 C-8.70989008 5.12206249 -7.42638194 3.03816083 -5 1 C-2 0 -2 0 0 0 Z " fill="#08121B" transform="translate(131,117)"/>
<path d="M0 0 C10.55808656 -0.55353075 10.55808656 -0.55353075 15 3 C14.34 3.66 13.68 4.32 13 5 C12.67 4.67 12.34 4.34 12 4 C10.865625 4 9.73125 4 8.5625 4 C5 4 5 4 3 3 C2.01 2.67 1.02 2.34 0 2 C0 1.34 0 0.68 0 0 Z " fill="#78B0C7" transform="translate(103,108)"/>
<path d="M0 0 C0.74056641 0.00451172 1.48113281 0.00902344 2.24414062 0.01367188 C4.05862899 0.02537825 5.87307534 0.04331102 7.6875 0.0625 C8.0175 0.7225 8.3475 1.3825 8.6875 2.0625 C7.70910156 2.01609375 6.73070313 1.9696875 5.72265625 1.921875 C-2.11534957 1.70607936 -8.42522493 1.88160673 -15.3125 6.0625 C-15.6425 5.4025 -15.9725 4.7425 -16.3125 4.0625 C-15.3225 4.0625 -14.3325 4.0625 -13.3125 4.0625 C-13.3125 3.0725 -13.3125 2.0825 -13.3125 1.0625 C-8.8746439 -0.04915232 -4.54293614 -0.05277763 0 0 Z " fill="#7EB1D0" transform="translate(109.3125,56.9375)"/>
<path d="M0 0 C1.32 0 2.64 0 4 0 C2.77472971 4.05281712 1.30119506 7.44360764 -1 11 C-2.1875 9.4375 -2.1875 9.4375 -3 7 C-1.625 3.25 -1.625 3.25 0 0 Z " fill="#272726" transform="translate(161,107)"/>
<path d="M0 0 C-0.0625 1.75 -0.0625 1.75 -1 4 C-3.70049044 6.00840495 -6.55126733 8 -10 8 C-9.875 5.6875 -9.875 5.6875 -9 3 C-5.79266696 0.97798569 -3.80845564 0 0 0 Z " fill="#517784" transform="translate(154,63)"/>
<path d="M0 0 C1.90318884 2.85478326 2.4619099 4.41941308 3.125 7.6875 C3.29257813 8.49574219 3.46015625 9.30398437 3.6328125 10.13671875 C3.75398437 10.75160156 3.87515625 11.36648437 4 12 C3.01 12.33 2.02 12.66 1 13 C1 12.01 1 11.02 1 10 C0.01 10 -0.98 10 -2 10 C-2.33 8.68 -2.66 7.36 -3 6 C-2.01 6 -1.02 6 0 6 C0 4.02 0 2.04 0 0 Z " fill="#1D233C" transform="translate(164,51)"/>
<path d="M0 0 C5.8845041 3.94291645 10.05708355 8.1154959 14 14 C11 14 11 14 8.875 12.25 C7.03354564 10.04025476 6.39987019 8.79909134 6 6 C5.01 6 4.02 6 3 6 C3 5.34 3 4.68 3 4 C2.34 4 1.68 4 1 4 C0.67 2.68 0.34 1.36 0 0 Z " fill="#7EB2CF" transform="translate(138,26)"/>
<path d="M0 0 C5.94 0 11.88 0 18 0 C18 0.33 18 0.66 18 1 C15.54203147 1.19436491 13.08390706 1.3807742 10.625 1.5625 C9.92632812 1.61857422 9.22765625 1.67464844 8.5078125 1.73242188 C3.2265625 2.11328125 3.2265625 2.11328125 1 1 C1.99 2.32 2.98 3.64 4 5 C1.03 4.67 -1.94 4.34 -5 4 C-5 3.67 -5 3.34 -5 3 C-3.35 3 -1.7 3 0 3 C0 2.01 0 1.02 0 0 Z " fill="#2E4048" transform="translate(85,147)"/>
<path d="M0 0 C0.99 0.33 1.98 0.66 3 1 C1.75023244 4.65316671 1.32901247 5.78065836 -2 8 C-2.33 7.34 -2.66 6.68 -3 6 C-3.99 5.34 -4.98 4.68 -6 4 C-4.68 3.01 -3.36 2.02 -2 1 C-1.67 1.33 -1.34 1.66 -1 2 C-0.67 1.34 -0.34 0.68 0 0 Z " fill="#172525" transform="translate(156,117)"/>
<path d="M0 0 C1.21405922 3.49551279 0.777272 5.69093297 -0.3125 9.1875 C-0.57675781 10.06792969 -0.84101562 10.94835938 -1.11328125 11.85546875 C-2 14 -2 14 -4 15 C-3.63495936 9.33557626 -2.9445679 4.99296295 0 0 Z " fill="#79B1CB" transform="translate(37,49)"/>
<path d="M0 0 C1.60781893 0.7631861 3.21113138 1.53587058 4.8125 2.3125 C5.70582031 2.74175781 6.59914062 3.17101562 7.51953125 3.61328125 C9.78931933 4.88221789 11.29248171 6.06556898 13 8 C10.69 7.67 8.38 7.34 6 7 C5.67 7.66 5.34 8.32 5 9 C4.34 8.34 3.68 7.68 3 7 C3.33 6.01 3.66 5.02 4 4 C2.68 3.34 1.36 2.68 0 2 C0 1.34 0 0.68 0 0 Z " fill="#1B1D26" transform="translate(128,14)"/>
<path d="M0 0 C2.31882635 2.31882635 2.68613242 3.81285956 3.5625 6.9375 C3.81128906 7.81277344 4.06007813 8.68804687 4.31640625 9.58984375 C4.65478516 10.78287109 4.65478516 10.78287109 5 12 C5.33 12.99 5.66 13.98 6 15 C4.68 14.67 3.36 14.34 2 14 C0.66416101 9.15758367 -0.25328119 5.06562383 0 0 Z " fill="#7FB9D9" transform="translate(74,106)"/>
<path d="M0 0 C0.94875 0.350625 1.8975 0.70125 2.875 1.0625 C2.5 3 2.5 3 1.875 5.0625 C0.885 5.5575 0.885 5.5575 -0.125 6.0625 C-2.75 4.8125 -2.75 4.8125 -5.125 3.0625 C-5.125 2.0725 -5.125 1.0825 -5.125 0.0625 C-3.125 -0.9375 -3.125 -0.9375 0 0 Z " fill="#070B10" transform="translate(139.125,20.9375)"/>
<path d="M0 0 C1.98 0.495 1.98 0.495 4 1 C4.33 2.32 4.66 3.64 5 5 C3.02 5.99 3.02 5.99 1 7 C0.34 6.34 -0.32 5.68 -1 5 C-0.625 2.375 -0.625 2.375 0 0 Z " fill="#020909" transform="translate(62,43)"/>
<path d="M0 0 C1.65 0.99 3.3 1.98 5 3 C4.67 4.32 4.34 5.64 4 7 C1.36 6.67 -1.28 6.34 -4 6 C-4 5.67 -4 5.34 -4 5 C-2.35 5 -0.7 5 1 5 C0.67 3.35 0.34 1.7 0 0 Z " fill="#0E1B26" transform="translate(83,40)"/>
<path d="M0 0 C0 2 0 2 -1.625 3.9375 C-5.11528865 6.96854014 -8.31374852 9 -13 9 C-11.73113036 7.87278564 -10.45982438 6.74831342 -9.1875 5.625 C-8.47980469 4.99851562 -7.77210937 4.37203125 -7.04296875 3.7265625 C-2.63348416 0 -2.63348416 0 0 0 Z " fill="#83BAD8" transform="translate(64,22)"/>
<path d="M0 0 C0.99 0.33 1.98 0.66 3 1 C1.74874616 4.75376152 0.4347596 5.24073289 -3 7 C-3.66 7 -4.32 7 -5 7 C-4.67 5.68 -4.34 4.36 -4 3 C-3.34 3 -2.68 3 -2 3 C-1.67 2.34 -1.34 1.68 -1 1 C-0.67 0.67 -0.34 0.34 0 0 Z " fill="#222424" transform="translate(139,135)"/>
<path d="M0 0 C0.66 0.33 1.32 0.66 2 1 C-0.31 3.64 -2.62 6.28 -5 9 C-5.66 7.68 -6.32 6.36 -7 5 C-3.375 2 -3.375 2 0 2 C0 1.34 0 0.68 0 0 Z " fill="#383838" transform="translate(152,125)"/>
<path d="M0 0 C2.84574968 1.27568089 5.18089981 2.41496289 7 5 C6.6875 7.6875 6.6875 7.6875 6 10 C5.34 10 4.68 10 4 10 C3.566875 8.63875 3.566875 8.63875 3.125 7.25 C2.23468224 4.67797092 1.28505587 2.38653234 0 0 Z " fill="#86BDDC" transform="translate(117,112)"/>
<path d="M0 0 C1.953125 0.7109375 1.953125 0.7109375 4 2 C4.609375 4.1640625 4.609375 4.1640625 4.75 6.625 C4.80671875 7.44226563 4.8634375 8.25953125 4.921875 9.1015625 C4.94765625 9.72804688 4.9734375 10.35453125 5 11 C4.01 11.495 4.01 11.495 3 12 C1.68 8.37 0.36 4.74 -1 1 C-0.67 0.67 -0.34 0.34 0 0 Z " fill="#7AB8D8" transform="translate(133,70)"/>
<path d="M0 0 C-0.99 0.495 -0.99 0.495 -2 1 C-2 1.66 -2 2.32 -2 3 C-1.34 3.33 -0.68 3.66 0 4 C-1.65 4.33 -3.3 4.66 -5 5 C-5.33 3.35 -5.66 1.7 -6 0 C-3 -1 -3 -1 0 0 Z " fill="#09131B" transform="translate(117,38)"/>
<path d="M0 0 C4.23429756 1.31061591 8.07407404 2.94356259 12 5 C11.01 5.66 10.02 6.32 9 7 C5.85808576 5.46395304 2.91403262 3.94268841 0 2 C0 1.34 0 0.68 0 0 Z " fill="#81B6D4" transform="translate(121,17)"/>
<path d="M0 0 C0.99 0.33 1.98 0.66 3 1 C2.67 2.32 2.34 3.64 2 5 C-0.31 5.33 -2.62 5.66 -5 6 C-5 5.34 -5 4.68 -5 4 C-4.0409375 3.8453125 -4.0409375 3.8453125 -3.0625 3.6875 C-2.381875 3.460625 -1.70125 3.23375 -1 3 C-0.67 2.01 -0.34 1.02 0 0 Z " fill="#05080E" transform="translate(66,15)"/>
<path d="M0 0 C5.53846154 -0.36923077 5.53846154 -0.36923077 7.875 1.5 C8.24625 1.995 8.6175 2.49 9 3 C5.85069107 4.04976964 3.61185544 4.10131595 0.3125 4.0625 C-0.68136719 4.05347656 -1.67523438 4.04445313 -2.69921875 4.03515625 C-3.83810547 4.01775391 -3.83810547 4.01775391 -5 4 C-5 3.67 -5 3.34 -5 3 C-0.545 2.505 -0.545 2.505 4 2 C2.68 1.34 1.36 0.68 0 0 Z " fill="#E1ECED" transform="translate(156,102)"/>
<path d="M0 0 C2 3 2 3 2 5 C-0.64 5 -3.28 5 -6 5 C-6.33 4.34 -6.66 3.68 -7 3 C-3.535 2.505 -3.535 2.505 0 2 C0 1.34 0 0.68 0 0 Z " fill="#598EAA" transform="translate(161,58)"/>
<path d="M0 0 C3.09592835 3.5087188 4.74194623 6.49197399 6 11 C5.01 11.33 4.02 11.66 3 12 C1.82923301 8.01939223 0.74250597 4.08378283 0 0 Z " fill="#7FB3CF" transform="translate(153,42)"/>
<path d="M0 0 C-0.33 1.32 -0.66 2.64 -1 4 C-5.455 4.495 -5.455 4.495 -10 5 C-3.63636364 0 -3.63636364 0 0 0 Z " fill="#7CB6D0" transform="translate(74,17)"/>
<path d="M0 0 C2.86724686 0.57344937 3.8614515 0.8614515 6 3 C1.56923077 5.09230769 1.56923077 5.09230769 -1.3125 4.625 C-1.869375 4.41875 -2.42625 4.2125 -3 4 C-2.34 3.67 -1.68 3.34 -1 3 C-0.67 2.01 -0.34 1.02 0 0 Z " fill="#272425" transform="translate(118,145)"/>
<path d="M0 0 C1.65 0 3.3 0 5 0 C4.34 1.32 3.68 2.64 3 4 C-0.63 4 -4.26 4 -8 4 C-8 3.67 -8 3.34 -8 3 C-5.36 2.67 -2.72 2.34 0 2 C0 1.34 0 0.68 0 0 Z " fill="#192D3B" transform="translate(106,129)"/>
<path d="M0 0 C2 2 2 2 2.125 5.125 C2.08375 6.07375 2.0425 7.0225 2 8 C1.01 8 0.02 8 -1 8 C-1 8.99 -1 9.98 -1 11 C-1.66 11 -2.32 11 -3 11 C-2.01 7.37 -1.02 3.74 0 0 Z " fill="#78B2CC" transform="translate(136,104)"/>
<path d="M0 0 C3 3 3 3 3.14453125 4.97265625 C3.03496094 5.66230469 2.92539063 6.35195312 2.8125 7.0625 C2.71582031 7.75472656 2.61914062 8.44695312 2.51953125 9.16015625 C2 11 2 11 0 13 C0 8.71 0 4.42 0 0 Z " fill="#232321" transform="translate(244,95)"/>
<path d="M0 0 C2.475 0.495 2.475 0.495 5 1 C4.67 2.65 4.34 4.3 4 6 C2.68 6 1.36 6 0 6 C0 4.02 0 2.04 0 0 Z " fill="#364B44" transform="translate(157,87)"/>
<path d="M0 0 C0.33 0.99 0.66 1.98 1 3 C0.34 3 -0.32 3 -1 3 C-0.67 2.01 -0.34 1.02 0 0 Z M-3 3 C-2.34 3 -1.68 3 -1 3 C-1 4.65 -1 6.3 -1 8 C-2.98 8.99 -2.98 8.99 -5 10 C-4.34 7.69 -3.68 5.38 -3 3 Z " fill="#060101" transform="translate(36,45)"/>
<path d="M0 0 C4.43090471 1.20842856 6.98112756 2.51668565 10 6 C9.01 6.495 9.01 6.495 8 7 C6.66382648 6.02471263 5.3311249 5.04466681 4 4.0625 C3.2575 3.51722656 2.515 2.97195312 1.75 2.41015625 C1.1725 1.94480469 0.595 1.47945312 0 1 C0 0.67 0 0.34 0 0 Z " fill="#78AEC8" transform="translate(53,130)"/>
<path d="M0 0 C1.32 0.66 2.64 1.32 4 2 C2.35 3.32 0.7 4.64 -1 6 C-1.66 5.01 -2.32 4.02 -3 3 C-2.34 3 -1.68 3 -1 3 C-0.67 2.01 -0.34 1.02 0 0 Z " fill="#243133" transform="translate(47,126)"/>
<path d="M0 0 C-1.32 2.64 -2.64 5.28 -4 8 C-4.33 8 -4.66 8 -5 8 C-4.67 5.69 -4.34 3.38 -4 1 C-4.66 0.67 -5.32 0.34 -6 0 C-2.25 -1.125 -2.25 -1.125 0 0 Z " fill="#7FB3D0" transform="translate(160,107)"/>
<path d="M0 0 C5.75 -0.125 5.75 -0.125 8 1 C7.34 2.32 6.68 3.64 6 5 C3.98079663 3.69593116 1.98075027 2.36176581 0 1 C0 0.67 0 0.34 0 0 Z " fill="#7ABAD4" transform="translate(132,33)"/>
<path d="M0 0 C2.64 0.33 5.28 0.66 8 1 C8 3.31 8 5.62 8 8 C7.34 7.67 6.68 7.34 6 7 C5.896875 6.360625 5.79375 5.72125 5.6875 5.0625 C5.3471875 4.0415625 5.3471875 4.0415625 5 3 C2.50965614 1.70339566 2.50965614 1.70339566 0 1 C0 0.67 0 0.34 0 0 Z " fill="#7CB6D5" transform="translate(81,39)"/>
<path d="M0 0 C-5.625 3 -5.625 3 -9 3 C-8.67 2.01 -8.34 1.02 -8 0 C-5.04215769 -1.22393475 -3.00272755 -0.96516243 0 0 Z " fill="#81B8D5" transform="translate(121,124)"/>
<path d="M0 0 C-2.55068845 2.35448165 -3.71017358 2.98327924 -7.25 3.1875 C-8.1575 3.125625 -9.065 3.06375 -10 3 C-7.29536552 -0.8183075 -4.37912428 -0.24787496 0 0 Z " fill="#80B9D7" transform="translate(76,46)"/>
<path d="M0 0 C1.32 0.33 2.64 0.66 4 1 C3.34 1 2.68 1 2 1 C2 1.66 2 2.32 2 3 C1.34 3 0.68 3 0 3 C-0.66 4.65 -1.32 6.3 -2 8 C-2.6875 6.25 -2.6875 6.25 -3 4 C-1.5625 1.75 -1.5625 1.75 0 0 Z " fill="#7CB3CB" transform="translate(60,42)"/>
<path d="M0 0 C0.33 1.32 0.66 2.64 1 4 C-0.65 4.66 -2.3 5.32 -4 6 C-3.67 4.35 -3.34 2.7 -3 1 C-2.01 0.67 -1.02 0.34 0 0 Z " fill="#02070C" transform="translate(158,114)"/>
<path d="M0 0 C2.375 0.1875 2.375 0.1875 5 1 C6.3125 3.5625 6.3125 3.5625 7 6 C6.01 6 5.02 6 4 6 C1.8125 3 1.8125 3 0 0 Z " fill="#81B8D4" transform="translate(126,63)"/>
<path d="M0 0 C0.66 0.33 1.32 0.66 2 1 C0.875 3 0.875 3 -1 5 C-4.1875 5.25 -4.1875 5.25 -7 5 C-4.702779 3.25728062 -2.40133271 1.60088848 0 0 Z " fill="#7FB4D6" transform="translate(120,39)"/>
<path d="M0 0 C0.556875 0.226875 1.11375 0.45375 1.6875 0.6875 C-0.6225 2.0075 -2.9325 3.3275 -5.3125 4.6875 C-5.9725 4.0275 -6.6325 3.3675 -7.3125 2.6875 C-2.88173077 -0.38942308 -2.88173077 -0.38942308 0 0 Z " fill="#0F1C2E" transform="translate(71.3125,39.3125)"/>
</svg>
