<?xml version="1.0" encoding="UTF-8"?>
<svg version="1.1" xmlns="http://www.w3.org/2000/svg" width="512" height="256">
<path d="M0 0 C-45.54 45.54 -45.54 45.54 -92 92 C-73.85 92.33 -55.7 92.66 -37 93 C-37 101.58 -37 110.16 -37 119 C-38 120 -38 120 -41.0039978 120.05055237 C-42.37174623 120.02209525 -43.73939479 119.9886074 -45.10693359 119.95141602 C-46.66117945 119.91933365 -48.21544077 119.88799422 -49.76971436 119.85728455 C-51.01931065 119.83093083 -51.01931065 119.83093083 -52.29415131 119.80404472 C-92.83874479 119.02346844 -130.09102137 118.60237353 -168.05499268 134.69960022 C-173.71618372 137.09460543 -173.71618372 137.09460543 -177 136 C-146.64 105.64 -116.28 75.28 -85 44 C-103.15 43.67 -121.3 43.34 -140 43 C-140 34.42 -140 25.84 -140 17 C-137.66075439 17.04825928 -135.32150879 17.09651855 -132.91137695 17.14624023 C-71.72473337 19.21147258 -71.72473337 19.21147258 -13.57666016 2.58813477 C-4.42558174 -1.47519391 -4.42558174 -1.47519391 0 0 Z " fill="#F6A41C" transform="translate(220,60)"/>
<path d="M0 0 C18.81 0 37.62 0 57 0 C57 8.58 57 17.16 57 26 C46.77 26 36.54 26 26 26 C26 42.5 26 59 26 76 C38.54 76 51.08 76 64 76 C58.13579537 87.72840925 49.26683692 94.63787038 39 103 C26.13 103 13.26 103 0 103 C0 69.01 0 35.02 0 0 Z " fill="#F6A31C" transform="translate(13,77)"/>
<path d="M0 0 C0 33.66 0 67.32 0 102 C-18.81 102 -37.62 102 -57 102 C-57 93.42 -57 84.84 -57 76 C-46.77 76 -36.54 76 -26 76 C-26 59.5 -26 43 -26 26 C-38.54 26 -51.08 26 -64 26 C-62.02 23.69 -60.04 21.38 -58 19 C-56.86019907 17.39805517 -55.73443884 15.78593947 -54.62890625 14.16015625 C-37.91486621 -6.79260287 -31.02723058 0 0 0 Z " fill="#F7A41D" transform="translate(249,77)"/>
<path d="M0 0 C0.66 0.5775 1.32 1.155 2 1.75 C0.49087042 6.73012761 -2.55661849 9.99259942 -6 13.75 C-10.09917849 12.9301643 -13.21322556 11.00796303 -16.78125 8.90625 C-22.98261965 5.67455032 -30.19445307 6.09864402 -37 6.75 C-44.89207106 9.28958419 -49.8770255 14.9432871 -53.8125 22 C-56.94907993 31.90498924 -56.53983442 41.44324744 -51.96484375 50.88671875 C-48.40775704 56.44542035 -43.45929638 59.74799691 -37.16796875 61.5703125 C-27.8068757 63.46896809 -20.36656003 62.35160802 -12 57.75 C-11.34 57.75 -10.68 57.75 -10 57.75 C-10 52.8 -10 47.85 -10 42.75 C-16.93 42.75 -23.86 42.75 -31 42.75 C-31 38.13 -31 33.51 -31 28.75 C-19.12 28.75 -7.24 28.75 5 28.75 C5.165 34.56625 5.33 40.3825 5.5 46.375 C5.57283203 48.1998291 5.64566406 50.0246582 5.72070312 51.90478516 C5.98869315 63.30352109 5.98869315 63.30352109 3.3659668 67.140625 C1.29986047 68.72129002 -0.60274954 69.75708591 -3 70.75 C-3.90105469 71.28109375 -4.80210937 71.8121875 -5.73046875 72.359375 C-18.68405511 78.3728046 -33.12810995 79.55286401 -46.8125 75.125 C-57.42112168 70.80354676 -65.32800811 63.06326176 -69.8125 52.625 C-74.83860251 40.10040799 -74.26133016 27.14588933 -69 14.75 C-67.27437598 11.48275222 -65.3261506 8.61685389 -63 5.75 C-62.49855469 5.12480469 -61.99710937 4.49960938 -61.48046875 3.85546875 C-46.16746689 -13.24591289 -17.63154514 -13.22365886 0 0 Z " fill="#727374" transform="translate(494,99.25)"/>
<path d="M0 0 C22.11 0 44.22 0 67 0 C67 13.34526634 67 13.34526634 62.78466797 17.87939453 C62.19572754 18.45544434 61.60678711 19.03149414 61 19.625 C59.79290164 20.90496013 58.58716903 22.18620966 57.3828125 23.46875 C56.79661133 24.07460937 56.21041016 24.68046875 55.60644531 25.3046875 C53.55212588 27.47265013 51.70531612 29.76626626 49.875 32.125 C46.83148296 35.99039506 43.68962951 39.75546383 40.5 43.5 C33.42347585 51.81776443 26.70584734 60.37819627 20 69 C35.51 69 51.02 69 67 69 C67 73.62 67 78.24 67 83 C44.23 83 21.46 83 -2 83 C-2 69.66348274 -2 69.66348274 2.0625 65.32421875 C2.92875 64.48310547 2.92875 64.48310547 3.8125 63.625 C5.01992292 62.34918275 6.22429692 61.0704739 7.42578125 59.7890625 C8.33384521 58.84208496 8.33384521 58.84208496 9.26025391 57.87597656 C11.86898938 55.06296458 14.18048757 52.05208097 16.5 49 C20.91798616 43.26816296 25.58394542 37.79405617 30.35083008 32.35058594 C35.50497045 26.45525109 40.65122617 20.52316075 45 14 C30.15 14 15.3 14 0 14 C0 9.38 0 4.76 0 0 Z " fill="#727374" transform="translate(268,92)"/>
<path d="M0 0 C5.28 0 10.56 0 16 0 C16 27.39 16 54.78 16 83 C10.72 83 5.44 83 0 83 C0 55.61 0 28.22 0 0 Z " fill="#737474" transform="translate(370,92)"/>
</svg>
